<svg xmlns="http://www.w3.org/2000/svg" xmlns:xlink="http://www.w3.org/1999/xlink" version="1.1" width="1152" height="648" viewBox="0 0 1152 648">
<path transform="matrix(1,0,0,-1,0,648)" d="M787.4736 608.237C865.9607 608.237 937.0202 576.4212 988.458 524.9843 1039.8949 473.5474 1071.7106 402.4871 1071.7106 324 1071.7106 298.0517 1054.4965 276.1257 1030.866 269.0118 1020.3344 222.1934 996.6458 180.3546 963.8824 147.5909 918.7376 102.4469 856.3669 74.5231 787.4736 74.5231 746.513 74.5231 707.8581 84.3936 673.7579 101.8862 636.2158 105.6657 601.4299 118.7943 571.7653 138.907 576.4725 133.4254 581.3827 128.122 586.489 123.0157 637.926 71.5788 708.9863 39.7627 787.4736 39.7627 865.9607 39.7627 937.0202 71.5788 988.458 123.0157 1039.8949 174.4532 1071.7106 245.5126 1071.7106 324 1071.7106 349.9483 1054.4965 371.874 1030.866 378.9882 1020.3344 425.8063 996.6458 467.6454 963.8824 500.4088 918.7376 545.5528 856.3669 573.4766 787.4736 573.4766 744.3887 573.4766 703.8561 562.5553 668.4914 543.3316 631.1027 538.6663 596.6002 524.7099 567.3657 503.8449 573.3884 511.2071 579.7692 518.2645 586.489 524.9843 637.926 576.4212 708.9863 608.237 787.4736 608.237" fill="#4ea392"/>
<path transform="matrix(1,0,0,-1,0,648)" d="M398.2955 151.9359 420.0863 216.635H404.5354L396.2798 188.9892C394.0722 181.5973 392.0564 173.9188 390.424 166.1428H390.1365C388.6004 174.2063 386.5847 181.5018 384.3771 189.2767L376.5056 216.635H360.474L381.2094 151.9359ZM460.1256 200.0285C444.9586 200.0285 434.975 190.3334 434.975 175.0697 434.975 159.9029 445.5346 150.8803 459.2611 150.8803 471.8364 150.8803 484.0277 158.7518 484.0277 175.9343 484.0277 190.1412 474.4278 200.0285 460.1256 200.0285ZM459.6449 189.5652C466.2689 189.5652 468.9561 182.4619 468.9561 175.5505 468.9561 167.0063 465.4043 161.3435 459.6449 161.3435 453.4061 161.3435 450.0465 167.3904 450.0465 175.4538 450.0465 182.3652 452.7334 189.5652 459.6449 189.5652ZM508.2282 151.9359H522.8192V220.1868H508.2282ZM594.0558 198.8765H579.4648V170.9422C579.4648 169.6944 579.2729 168.639 578.8888 167.7745 578.0254 165.4713 575.6255 162.6874 571.5933 162.6874 566.4101 162.6874 564.2025 166.8144 564.2025 173.6303V198.8765H549.6114V171.326C549.6114 156.8316 556.5229 150.8803 566.1215 150.8803 574.5691 150.8803 578.9854 155.6796 580.809 158.5599H581.0964L581.7691 151.9359H594.4399C594.2477 155.8715 594.0558 160.863 594.0558 167.0063ZM620.9447 151.9359H635.5355V179.0056C635.5355 180.3498 635.631 181.6937 636.0151 182.6538 637.0716 185.341 639.4714 188.1258 643.5026 188.1258 648.7824 188.1258 650.8945 183.998 650.8945 177.95V151.9359H665.4855V179.6783C665.4855 193.5011 658.2855 199.9329 648.686 199.9329 640.8153 199.9329 636.1115 195.421 634.1916 192.3489H633.903L633.2315 198.8765H620.5606C620.7525 194.6531 620.9447 189.7574 620.9447 183.9013ZM693.813 207.6114V198.8765H687.5731V188.1258H693.813V168.9265C693.813 162.3036 695.1569 157.7917 697.8441 155.0081 700.2448 152.6074 704.1807 150.9758 708.8834 150.9758 712.9157 150.9758 716.4675 151.5518 718.291 152.2233L718.1955 163.2626C716.8516 162.9751 715.8915 162.8796 713.8757 162.8796 709.556 162.8796 708.1155 165.4713 708.1155 171.1341V188.1258H718.5796V198.8765H708.1155V211.5473ZM781.2731 179.6783C781.2731 190.8128 776.3774 200.0285 760.7307 200.0285 752.1868 200.0285 745.7559 197.6289 742.4918 195.8051L745.1799 186.3975C748.2509 188.3177 753.3388 189.9493 758.1393 189.9493 765.3382 189.9493 766.6824 186.3975 766.6824 183.8058V183.2298C750.0756 183.2298 739.1319 177.4704 739.1319 165.2791 739.1319 157.7917 744.7958 150.8803 754.2989 150.8803 759.8662 150.8803 764.6666 152.896 767.7377 156.6397H768.0263L768.89 151.9359H782.0413C781.4653 154.5276 781.2731 158.8473 781.2731 163.2626ZM767.1617 169.0228C767.1617 168.1583 767.0662 167.2948 766.8743 166.5266 765.9142 163.5511 762.842 161.1513 759.2902 161.1513 756.0269 161.1513 753.5307 162.9751 753.5307 166.7188 753.5307 172.2861 759.4824 174.1099 767.1617 174.1099ZM763.3225 219.3233 755.0668 204.7323H765.0507L776.7615 219.3233ZM808.0654 151.9359H822.6564V175.7424C822.6564 176.8944 822.7519 178.0455 822.9438 179.0056 823.9039 183.5175 827.5521 186.3975 832.9275 186.3975 834.5591 186.3975 835.7114 186.2056 836.8634 186.0134V199.741C835.8069 199.9329 835.1351 200.0285 833.7912 200.0285 829.1837 200.0285 823.5198 197.1482 821.1203 190.2368H820.7362L820.1602 198.8765H807.6815C807.969 194.845 808.0654 190.3334 808.0654 183.422ZM874.3107 151.9359V198.8765H859.72V151.9359ZM867.1107 219.2267C862.4069 219.2267 859.3359 216.059 859.3359 211.9311 859.3359 207.9 862.3114 204.6356 866.9188 204.6356 871.8146 204.6356 874.7904 207.9 874.7904 211.9311 874.6948 216.059 871.8146 219.2267 867.1107 219.2267ZM940.2676 179.6783C940.2676 190.8128 935.3718 200.0285 919.7254 200.0285 911.1813 200.0285 904.7503 197.6289 901.4862 195.8051L904.1743 186.3975C907.2456 188.3177 912.3333 189.9493 917.1337 189.9493 924.3326 189.9493 925.6768 186.3975 925.6768 183.8058V183.2298C909.07 183.2298 898.1263 177.4704 898.1263 165.2791 898.1263 157.7917 903.7902 150.8803 913.2934 150.8803 918.8609 150.8803 923.6611 152.896 926.7324 156.6397H927.0207L927.8844 151.9359H941.0357C940.4597 154.5276 940.2676 158.8473 940.2676 163.2626ZM926.1561 169.0228C926.1561 168.1583 926.0606 167.2948 925.8687 166.5266 924.9086 163.5511 921.8364 161.1513 918.2846 161.1513 915.0216 161.1513 912.5254 162.9751 912.5254 166.7188 912.5254 172.2861 918.4768 174.1099 926.1561 174.1099Z" fill="#808285"/>
<path transform="matrix(1,0,0,-1,0,648)" d="M80.2896 486.7262H171.4912L224.8152 317.562 277.7703 486.7262H364.9272L266.3702 228.9348H178.111ZM360.474 430.0929H443.2178V228.9348H360.474ZM400.9263 529.3854C413.1845 529.3854 423.2367 525.4628 431.0821 517.6174 438.9273 509.7722 442.8499 499.72 442.8499 487.4618 442.8499 475.2037 438.9273 465.1523 431.0821 457.3069 423.2367 449.4617 413.1845 445.5388 400.9263 445.5388 388.6682 445.5388 378.6168 449.4617 370.7717 457.3069 362.9262 465.1523 359.0036 475.2037 359.0036 487.4618 359.0036 499.72 362.9262 509.7722 370.7717 517.6174 378.6168 525.4628 388.6682 529.3854 400.9263 529.3854ZM609.4001 357.2787C579.4897 371.9891 556.8117 379.3436 541.3666 379.3436 537.9338 379.3436 535.1763 378.7313 533.0925 377.5054 531.0079 376.2797 529.9662 374.6863 529.9662 372.725 529.9662 369.7824 532.173 367.331 536.586 365.3697 540.9986 363.4084 548.354 361.0791 558.6506 358.3823 573.1157 354.4597 585.4961 350.4146 595.7938 346.2463 606.0906 342.0791 615.1 335.7043 622.823 327.1241 630.5454 318.543 634.4073 307.3876 634.4073 293.6591 634.4073 279.9298 630.6684 267.9163 623.1909 257.6194 615.7134 247.3226 605.1095 239.3541 591.3802 233.7154 577.6509 228.077 561.5932 225.2577 543.2054 225.2577 505.6946 225.2577 472.9652 234.8189 445.0164 253.942L470.0237 305.4263C496.9913 288.7551 521.7531 280.4199 544.3089 280.4199 548.2315 280.4199 551.2955 280.9715 553.5023 282.0747 555.709 283.1774 556.8117 284.5871 556.8117 286.3037 556.8117 289.0006 554.6673 291.2683 550.3768 293.1072 546.0863 294.9454 539.1604 297.0907 529.5986 299.543 515.1334 303.2201 502.8752 307.1429 492.8241 311.3101 482.7719 315.4782 473.8847 321.8525 466.1617 330.4335 458.4396 339.0143 454.5785 350.2922 454.5785 364.2661 454.5785 378.2409 458.2556 390.4376 465.6107 400.8577 472.9652 411.2768 483.3235 419.3677 496.6852 425.1285 510.0466 430.89 525.5535 433.7708 543.2054 433.7708 575.3225 433.7708 606.4583 425.3122 636.6132 408.3959ZM831.4807 228.9348H750.208V250.632C737.9498 233.7154 719.0719 225.2577 693.5746 225.2577 672.4908 225.2577 656.0031 230.9579 644.1126 242.358 632.2224 253.7583 626.2767 269.142 626.2767 288.5097 626.2767 308.3686 632.8964 323.4461 646.1357 333.7427 659.374 344.0404 678.7417 349.4336 704.2391 349.9245H750.208C749.9625 357.0341 747.2047 362.4888 741.9339 366.2892 736.6623 370.0888 729.0009 371.9891 718.9498 371.9891 711.1043 371.9891 701.7262 370.8859 690.817 368.6791 679.9068 366.4732 668.9353 363.2859 657.9028 359.1179L639.5159 414.2798C656.6771 420.654 673.7774 425.4962 690.817 428.8065 707.8555 432.1159 723.8526 433.7708 738.8076 433.7708 767.9823 433.7708 790.7219 427.2129 807.025 414.0961 823.3291 400.9799 831.4807 382.6539 831.4807 359.1179M722.2589 277.8452C727.653 277.8452 732.8628 279.1939 737.888 281.8911 742.9141 284.5871 747.0207 288.3875 750.208 293.2911V311.6781H721.5233C709.7553 311.6781 703.8714 306.2849 703.8714 295.4971 703.8714 289.8587 705.4648 285.5066 708.6521 282.4427 711.8399 279.3779 716.3751 277.8452 722.2589 277.8452ZM807.9446 512.4691C807.9446 489.6686 804.8183 473.1199 798.5673 462.8231 792.3155 452.5254 782.3248 447.3771 768.5955 447.3771 762.4661 447.3771 756.8889 448.236 751.8628 449.9518 746.837 451.6676 741.1368 454.1199 734.7626 457.3069 734.027 457.5515 731.9435 458.4711 728.5107 460.0647 725.0783 461.658 722.1368 462.4554 719.6854 462.4554 716.2526 462.4554 713.6782 461.2904 711.9624 458.9612 710.2463 456.6322 709.2652 453.0166 709.0197 448.1127H665.9935C665.9935 470.6685 669.1808 487.2172 675.5547 497.7587 681.9299 508.301 691.9809 513.5723 705.7103 513.5723 711.8399 513.5723 717.4783 512.653 722.6269 510.8139 727.7751 508.9748 733.4138 506.5849 739.5432 503.6426 746.4076 500.2109 751.3112 498.4943 754.2527 498.4943 757.931 498.4943 760.6278 499.5975 762.3437 501.8043 764.0595 504.0105 765.0405 507.5651 765.2852 512.4691Z" fill="#4ea392"/>
<path transform="matrix(1,0,0,-1,0,648)" d="M844.0418 323.8676C844.0418 345.494 848.3253 364.4447 856.8944 380.7218 865.4638 396.9995 877.6346 409.557 893.4049 418.3923 909.1769 427.2284 927.6191 431.6465 948.731 431.6465 969.8414 431.6465 988.2836 427.2284 1004.055 418.3923 1019.827 409.557 1032.0582 396.9995 1040.7518 380.7218 1049.4442 364.4447 1053.7909 345.494 1053.7909 323.8676 1053.7909 302.2418 1049.4442 283.2911 1040.7518 267.0134 1032.0582 250.736 1019.827 238.1788 1004.055 229.3435 988.2836 220.5068 969.8414 216.0887 948.731 216.0887 927.6191 216.0887 909.1769 220.5068 893.4049 229.3435 877.6346 238.1788 865.4638 250.736 856.8944 267.0134 848.3253 283.2911 844.0418 302.2418 844.0418 323.8676" fill="#a5c3d2"/>
</svg>
